<svg version="1.1" id="el_Oms3ffJhB" xmlns="http://www.w3.org/2000/svg" xmlns:xlink="http://www.w3.org/1999/xlink" x="0px" y="0px" viewBox="0 0 482 192" style="enable-background:new 0 0 482.4 192.2;" xml:space="preserve"><style>@-webkit-keyframes kf_el_tFxgHchA-p_an_VRQrD7QnV{77.50%{-webkit-transform: translate(387.40000915527344px, 96.54999923706055px) scale(1, 1) translate(-387.40000915527344px, -96.54999923706055px);transform: translate(387.40000915527344px, 96.54999923706055px) scale(1, 1) translate(-387.40000915527344px, -96.54999923706055px);}78.33%{-webkit-transform: translate(387.40000915527344px, 96.54999923706055px) scale(1.2, 1.2) translate(-387.40000915527344px, -96.54999923706055px);transform: translate(387.40000915527344px, 96.54999923706055px) scale(1.2, 1.2) translate(-387.40000915527344px, -96.54999923706055px);}80%{-webkit-transform: translate(387.40000915527344px, 96.54999923706055px) scale(1, 1) translate(-387.40000915527344px, -96.54999923706055px);transform: translate(387.40000915527344px, 96.54999923706055px) scale(1, 1) translate(-387.40000915527344px, -96.54999923706055px);}100%{-webkit-transform: translate(387.40000915527344px, 96.54999923706055px) scale(1, 1) translate(-387.40000915527344px, -96.54999923706055px);transform: translate(387.40000915527344px, 96.54999923706055px) scale(1, 1) translate(-387.40000915527344px, -96.54999923706055px);}}@keyframes kf_el_tFxgHchA-p_an_VRQrD7QnV{77.50%{-webkit-transform: translate(387.40000915527344px, 96.54999923706055px) scale(1, 1) translate(-387.40000915527344px, -96.54999923706055px);transform: translate(387.40000915527344px, 96.54999923706055px) scale(1, 1) translate(-387.40000915527344px, -96.54999923706055px);}78.33%{-webkit-transform: translate(387.40000915527344px, 96.54999923706055px) scale(1.2, 1.2) translate(-387.40000915527344px, -96.54999923706055px);transform: translate(387.40000915527344px, 96.54999923706055px) scale(1.2, 1.2) translate(-387.40000915527344px, -96.54999923706055px);}80%{-webkit-transform: translate(387.40000915527344px, 96.54999923706055px) scale(1, 1) translate(-387.40000915527344px, -96.54999923706055px);transform: translate(387.40000915527344px, 96.54999923706055px) scale(1, 1) translate(-387.40000915527344px, -96.54999923706055px);}100%{-webkit-transform: translate(387.40000915527344px, 96.54999923706055px) scale(1, 1) translate(-387.40000915527344px, -96.54999923706055px);transform: translate(387.40000915527344px, 96.54999923706055px) scale(1, 1) translate(-387.40000915527344px, -96.54999923706055px);}}@-webkit-keyframes kf_el_r3yXyjeCrr_an_7OiDFnjjE{74.72%{-webkit-transform: translate(259.2023468017578px, 96.81402206420898px) scale(1, 1) translate(-259.2023468017578px, -96.81402206420898px);transform: translate(259.2023468017578px, 96.81402206420898px) scale(1, 1) translate(-259.2023468017578px, -96.81402206420898px);}75.56%{-webkit-transform: translate(259.2023468017578px, 96.81402206420898px) scale(1.1, 1.1) translate(-259.2023468017578px, -96.81402206420898px);transform: translate(259.2023468017578px, 96.81402206420898px) scale(1.1, 1.1) translate(-259.2023468017578px, -96.81402206420898px);}76.39%{-webkit-transform: translate(259.2023468017578px, 96.81402206420898px) scale(1, 1) translate(-259.2023468017578px, -96.81402206420898px);transform: translate(259.2023468017578px, 96.81402206420898px) scale(1, 1) translate(-259.2023468017578px, -96.81402206420898px);}0%{-webkit-transform: translate(259.2023468017578px, 96.81402206420898px) scale(1, 1) translate(-259.2023468017578px, -96.81402206420898px);transform: translate(259.2023468017578px, 96.81402206420898px) scale(1, 1) translate(-259.2023468017578px, -96.81402206420898px);}100%{-webkit-transform: translate(259.2023468017578px, 96.81402206420898px) scale(1, 1) translate(-259.2023468017578px, -96.81402206420898px);transform: translate(259.2023468017578px, 96.81402206420898px) scale(1, 1) translate(-259.2023468017578px, -96.81402206420898px);}}@keyframes kf_el_r3yXyjeCrr_an_7OiDFnjjE{74.72%{-webkit-transform: translate(259.2023468017578px, 96.81402206420898px) scale(1, 1) translate(-259.2023468017578px, -96.81402206420898px);transform: translate(259.2023468017578px, 96.81402206420898px) scale(1, 1) translate(-259.2023468017578px, -96.81402206420898px);}75.56%{-webkit-transform: translate(259.2023468017578px, 96.81402206420898px) scale(1.1, 1.1) translate(-259.2023468017578px, -96.81402206420898px);transform: translate(259.2023468017578px, 96.81402206420898px) scale(1.1, 1.1) translate(-259.2023468017578px, -96.81402206420898px);}76.39%{-webkit-transform: translate(259.2023468017578px, 96.81402206420898px) scale(1, 1) translate(-259.2023468017578px, -96.81402206420898px);transform: translate(259.2023468017578px, 96.81402206420898px) scale(1, 1) translate(-259.2023468017578px, -96.81402206420898px);}0%{-webkit-transform: translate(259.2023468017578px, 96.81402206420898px) scale(1, 1) translate(-259.2023468017578px, -96.81402206420898px);transform: translate(259.2023468017578px, 96.81402206420898px) scale(1, 1) translate(-259.2023468017578px, -96.81402206420898px);}100%{-webkit-transform: translate(259.2023468017578px, 96.81402206420898px) scale(1, 1) translate(-259.2023468017578px, -96.81402206420898px);transform: translate(259.2023468017578px, 96.81402206420898px) scale(1, 1) translate(-259.2023468017578px, -96.81402206420898px);}}@-webkit-keyframes kf_el_Hj34pdASwP_an_DfBILw7iH{73.33%{-webkit-transform: translate(219.54998016357422px, 96.49905395507812px) scale(1, 1) translate(-219.54998016357422px, -96.49905395507812px);transform: translate(219.54998016357422px, 96.49905395507812px) scale(1, 1) translate(-219.54998016357422px, -96.49905395507812px);}74.17%{-webkit-transform: translate(219.54998016357422px, 96.49905395507812px) scale(1.1, 1.1) translate(-219.54998016357422px, -96.49905395507812px);transform: translate(219.54998016357422px, 96.49905395507812px) scale(1.1, 1.1) translate(-219.54998016357422px, -96.49905395507812px);}75%{-webkit-transform: translate(219.54998016357422px, 96.49905395507812px) scale(1, 1) translate(-219.54998016357422px, -96.49905395507812px);transform: translate(219.54998016357422px, 96.49905395507812px) scale(1, 1) translate(-219.54998016357422px, -96.49905395507812px);}0%{-webkit-transform: translate(219.54998016357422px, 96.49905395507812px) scale(1, 1) translate(-219.54998016357422px, -96.49905395507812px);transform: translate(219.54998016357422px, 96.49905395507812px) scale(1, 1) translate(-219.54998016357422px, -96.49905395507812px);}100%{-webkit-transform: translate(219.54998016357422px, 96.49905395507812px) scale(1, 1) translate(-219.54998016357422px, -96.49905395507812px);transform: translate(219.54998016357422px, 96.49905395507812px) scale(1, 1) translate(-219.54998016357422px, -96.49905395507812px);}}@keyframes kf_el_Hj34pdASwP_an_DfBILw7iH{73.33%{-webkit-transform: translate(219.54998016357422px, 96.49905395507812px) scale(1, 1) translate(-219.54998016357422px, -96.49905395507812px);transform: translate(219.54998016357422px, 96.49905395507812px) scale(1, 1) translate(-219.54998016357422px, -96.49905395507812px);}74.17%{-webkit-transform: translate(219.54998016357422px, 96.49905395507812px) scale(1.1, 1.1) translate(-219.54998016357422px, -96.49905395507812px);transform: translate(219.54998016357422px, 96.49905395507812px) scale(1.1, 1.1) translate(-219.54998016357422px, -96.49905395507812px);}75%{-webkit-transform: translate(219.54998016357422px, 96.49905395507812px) scale(1, 1) translate(-219.54998016357422px, -96.49905395507812px);transform: translate(219.54998016357422px, 96.49905395507812px) scale(1, 1) translate(-219.54998016357422px, -96.49905395507812px);}0%{-webkit-transform: translate(219.54998016357422px, 96.49905395507812px) scale(1, 1) translate(-219.54998016357422px, -96.49905395507812px);transform: translate(219.54998016357422px, 96.49905395507812px) scale(1, 1) translate(-219.54998016357422px, -96.49905395507812px);}100%{-webkit-transform: translate(219.54998016357422px, 96.49905395507812px) scale(1, 1) translate(-219.54998016357422px, -96.49905395507812px);transform: translate(219.54998016357422px, 96.49905395507812px) scale(1, 1) translate(-219.54998016357422px, -96.49905395507812px);}}@-webkit-keyframes kf_el_crxTe4utgb_an_tBmStF_Vt{71.94%{-webkit-transform: translate(178.1552505493164px, 96.91360473632812px) scale(1, 1) translate(-178.1552505493164px, -96.91360473632812px);transform: translate(178.1552505493164px, 96.91360473632812px) scale(1, 1) translate(-178.1552505493164px, -96.91360473632812px);}72.78%{-webkit-transform: translate(178.1552505493164px, 96.91360473632812px) scale(1.1, 1.1) translate(-178.1552505493164px, -96.91360473632812px);transform: translate(178.1552505493164px, 96.91360473632812px) scale(1.1, 1.1) translate(-178.1552505493164px, -96.91360473632812px);}73.61%{-webkit-transform: translate(178.1552505493164px, 96.91360473632812px) scale(1, 1) translate(-178.1552505493164px, -96.91360473632812px);transform: translate(178.1552505493164px, 96.91360473632812px) scale(1, 1) translate(-178.1552505493164px, -96.91360473632812px);}0%{-webkit-transform: translate(178.1552505493164px, 96.91360473632812px) scale(1, 1) translate(-178.1552505493164px, -96.91360473632812px);transform: translate(178.1552505493164px, 96.91360473632812px) scale(1, 1) translate(-178.1552505493164px, -96.91360473632812px);}100%{-webkit-transform: translate(178.1552505493164px, 96.91360473632812px) scale(1, 1) translate(-178.1552505493164px, -96.91360473632812px);transform: translate(178.1552505493164px, 96.91360473632812px) scale(1, 1) translate(-178.1552505493164px, -96.91360473632812px);}}@keyframes kf_el_crxTe4utgb_an_tBmStF_Vt{71.94%{-webkit-transform: translate(178.1552505493164px, 96.91360473632812px) scale(1, 1) translate(-178.1552505493164px, -96.91360473632812px);transform: translate(178.1552505493164px, 96.91360473632812px) scale(1, 1) translate(-178.1552505493164px, -96.91360473632812px);}72.78%{-webkit-transform: translate(178.1552505493164px, 96.91360473632812px) scale(1.1, 1.1) translate(-178.1552505493164px, -96.91360473632812px);transform: translate(178.1552505493164px, 96.91360473632812px) scale(1.1, 1.1) translate(-178.1552505493164px, -96.91360473632812px);}73.61%{-webkit-transform: translate(178.1552505493164px, 96.91360473632812px) scale(1, 1) translate(-178.1552505493164px, -96.91360473632812px);transform: translate(178.1552505493164px, 96.91360473632812px) scale(1, 1) translate(-178.1552505493164px, -96.91360473632812px);}0%{-webkit-transform: translate(178.1552505493164px, 96.91360473632812px) scale(1, 1) translate(-178.1552505493164px, -96.91360473632812px);transform: translate(178.1552505493164px, 96.91360473632812px) scale(1, 1) translate(-178.1552505493164px, -96.91360473632812px);}100%{-webkit-transform: translate(178.1552505493164px, 96.91360473632812px) scale(1, 1) translate(-178.1552505493164px, -96.91360473632812px);transform: translate(178.1552505493164px, 96.91360473632812px) scale(1, 1) translate(-178.1552505493164px, -96.91360473632812px);}}@-webkit-keyframes kf_el_NpMhutx-Ag_an_CqvhtNWkk{70.56%{-webkit-transform: translate(122.31145858764648px, 96.35476684570312px) scale(1, 1) translate(-122.31145858764648px, -96.35476684570312px);transform: translate(122.31145858764648px, 96.35476684570312px) scale(1, 1) translate(-122.31145858764648px, -96.35476684570312px);}71.39%{-webkit-transform: translate(122.31145858764648px, 96.35476684570312px) scale(1.1, 1.1) translate(-122.31145858764648px, -96.35476684570312px);transform: translate(122.31145858764648px, 96.35476684570312px) scale(1.1, 1.1) translate(-122.31145858764648px, -96.35476684570312px);}72.22%{-webkit-transform: translate(122.31145858764648px, 96.35476684570312px) scale(1, 1) translate(-122.31145858764648px, -96.35476684570312px);transform: translate(122.31145858764648px, 96.35476684570312px) scale(1, 1) translate(-122.31145858764648px, -96.35476684570312px);}0%{-webkit-transform: translate(122.31145858764648px, 96.35476684570312px) scale(1, 1) translate(-122.31145858764648px, -96.35476684570312px);transform: translate(122.31145858764648px, 96.35476684570312px) scale(1, 1) translate(-122.31145858764648px, -96.35476684570312px);}100%{-webkit-transform: translate(122.31145858764648px, 96.35476684570312px) scale(1, 1) translate(-122.31145858764648px, -96.35476684570312px);transform: translate(122.31145858764648px, 96.35476684570312px) scale(1, 1) translate(-122.31145858764648px, -96.35476684570312px);}}@keyframes kf_el_NpMhutx-Ag_an_CqvhtNWkk{70.56%{-webkit-transform: translate(122.31145858764648px, 96.35476684570312px) scale(1, 1) translate(-122.31145858764648px, -96.35476684570312px);transform: translate(122.31145858764648px, 96.35476684570312px) scale(1, 1) translate(-122.31145858764648px, -96.35476684570312px);}71.39%{-webkit-transform: translate(122.31145858764648px, 96.35476684570312px) scale(1.1, 1.1) translate(-122.31145858764648px, -96.35476684570312px);transform: translate(122.31145858764648px, 96.35476684570312px) scale(1.1, 1.1) translate(-122.31145858764648px, -96.35476684570312px);}72.22%{-webkit-transform: translate(122.31145858764648px, 96.35476684570312px) scale(1, 1) translate(-122.31145858764648px, -96.35476684570312px);transform: translate(122.31145858764648px, 96.35476684570312px) scale(1, 1) translate(-122.31145858764648px, -96.35476684570312px);}0%{-webkit-transform: translate(122.31145858764648px, 96.35476684570312px) scale(1, 1) translate(-122.31145858764648px, -96.35476684570312px);transform: translate(122.31145858764648px, 96.35476684570312px) scale(1, 1) translate(-122.31145858764648px, -96.35476684570312px);}100%{-webkit-transform: translate(122.31145858764648px, 96.35476684570312px) scale(1, 1) translate(-122.31145858764648px, -96.35476684570312px);transform: translate(122.31145858764648px, 96.35476684570312px) scale(1, 1) translate(-122.31145858764648px, -96.35476684570312px);}}@-webkit-keyframes kf_el_DZG-Xy-h1D_an_a3IYoQsrZ{69.17%{-webkit-transform: translate(86.19052124023438px, 96.19160461425781px) scale(1, 1) translate(-86.19052124023438px, -96.19160461425781px);transform: translate(86.19052124023438px, 96.19160461425781px) scale(1, 1) translate(-86.19052124023438px, -96.19160461425781px);}70%{-webkit-transform: translate(86.19052124023438px, 96.19160461425781px) scale(1.1, 1.1) translate(-86.19052124023438px, -96.19160461425781px);transform: translate(86.19052124023438px, 96.19160461425781px) scale(1.1, 1.1) translate(-86.19052124023438px, -96.19160461425781px);}70.83%{-webkit-transform: translate(86.19052124023438px, 96.19160461425781px) scale(1, 1) translate(-86.19052124023438px, -96.19160461425781px);transform: translate(86.19052124023438px, 96.19160461425781px) scale(1, 1) translate(-86.19052124023438px, -96.19160461425781px);}0%{-webkit-transform: translate(86.19052124023438px, 96.19160461425781px) scale(1, 1) translate(-86.19052124023438px, -96.19160461425781px);transform: translate(86.19052124023438px, 96.19160461425781px) scale(1, 1) translate(-86.19052124023438px, -96.19160461425781px);}100%{-webkit-transform: translate(86.19052124023438px, 96.19160461425781px) scale(1, 1) translate(-86.19052124023438px, -96.19160461425781px);transform: translate(86.19052124023438px, 96.19160461425781px) scale(1, 1) translate(-86.19052124023438px, -96.19160461425781px);}}@keyframes kf_el_DZG-Xy-h1D_an_a3IYoQsrZ{69.17%{-webkit-transform: translate(86.19052124023438px, 96.19160461425781px) scale(1, 1) translate(-86.19052124023438px, -96.19160461425781px);transform: translate(86.19052124023438px, 96.19160461425781px) scale(1, 1) translate(-86.19052124023438px, -96.19160461425781px);}70%{-webkit-transform: translate(86.19052124023438px, 96.19160461425781px) scale(1.1, 1.1) translate(-86.19052124023438px, -96.19160461425781px);transform: translate(86.19052124023438px, 96.19160461425781px) scale(1.1, 1.1) translate(-86.19052124023438px, -96.19160461425781px);}70.83%{-webkit-transform: translate(86.19052124023438px, 96.19160461425781px) scale(1, 1) translate(-86.19052124023438px, -96.19160461425781px);transform: translate(86.19052124023438px, 96.19160461425781px) scale(1, 1) translate(-86.19052124023438px, -96.19160461425781px);}0%{-webkit-transform: translate(86.19052124023438px, 96.19160461425781px) scale(1, 1) translate(-86.19052124023438px, -96.19160461425781px);transform: translate(86.19052124023438px, 96.19160461425781px) scale(1, 1) translate(-86.19052124023438px, -96.19160461425781px);}100%{-webkit-transform: translate(86.19052124023438px, 96.19160461425781px) scale(1, 1) translate(-86.19052124023438px, -96.19160461425781px);transform: translate(86.19052124023438px, 96.19160461425781px) scale(1, 1) translate(-86.19052124023438px, -96.19160461425781px);}}@-webkit-keyframes kf_el_oDIxXyqK33_an_IKR2TyboZ{68.33%{-webkit-transform: translate(50.822622299194336px, 96.3052864074707px) scale(1, 1) translate(-50.822622299194336px, -96.3052864074707px);transform: translate(50.822622299194336px, 96.3052864074707px) scale(1, 1) translate(-50.822622299194336px, -96.3052864074707px);}69.17%{-webkit-transform: translate(50.822622299194336px, 96.3052864074707px) scale(1.1, 1.1) translate(-50.822622299194336px, -96.3052864074707px);transform: translate(50.822622299194336px, 96.3052864074707px) scale(1.1, 1.1) translate(-50.822622299194336px, -96.3052864074707px);}70%{-webkit-transform: translate(50.822622299194336px, 96.3052864074707px) scale(1, 1) translate(-50.822622299194336px, -96.3052864074707px);transform: translate(50.822622299194336px, 96.3052864074707px) scale(1, 1) translate(-50.822622299194336px, -96.3052864074707px);}0%{-webkit-transform: translate(50.822622299194336px, 96.3052864074707px) scale(1, 1) translate(-50.822622299194336px, -96.3052864074707px);transform: translate(50.822622299194336px, 96.3052864074707px) scale(1, 1) translate(-50.822622299194336px, -96.3052864074707px);}100%{-webkit-transform: translate(50.822622299194336px, 96.3052864074707px) scale(1, 1) translate(-50.822622299194336px, -96.3052864074707px);transform: translate(50.822622299194336px, 96.3052864074707px) scale(1, 1) translate(-50.822622299194336px, -96.3052864074707px);}}@keyframes kf_el_oDIxXyqK33_an_IKR2TyboZ{68.33%{-webkit-transform: translate(50.822622299194336px, 96.3052864074707px) scale(1, 1) translate(-50.822622299194336px, -96.3052864074707px);transform: translate(50.822622299194336px, 96.3052864074707px) scale(1, 1) translate(-50.822622299194336px, -96.3052864074707px);}69.17%{-webkit-transform: translate(50.822622299194336px, 96.3052864074707px) scale(1.1, 1.1) translate(-50.822622299194336px, -96.3052864074707px);transform: translate(50.822622299194336px, 96.3052864074707px) scale(1.1, 1.1) translate(-50.822622299194336px, -96.3052864074707px);}70%{-webkit-transform: translate(50.822622299194336px, 96.3052864074707px) scale(1, 1) translate(-50.822622299194336px, -96.3052864074707px);transform: translate(50.822622299194336px, 96.3052864074707px) scale(1, 1) translate(-50.822622299194336px, -96.3052864074707px);}0%{-webkit-transform: translate(50.822622299194336px, 96.3052864074707px) scale(1, 1) translate(-50.822622299194336px, -96.3052864074707px);transform: translate(50.822622299194336px, 96.3052864074707px) scale(1, 1) translate(-50.822622299194336px, -96.3052864074707px);}100%{-webkit-transform: translate(50.822622299194336px, 96.3052864074707px) scale(1, 1) translate(-50.822622299194336px, -96.3052864074707px);transform: translate(50.822622299194336px, 96.3052864074707px) scale(1, 1) translate(-50.822622299194336px, -96.3052864074707px);}}@-webkit-keyframes kf_el_NoNjPExqJH_an_7l-_-vyX3{66.94%{-webkit-transform: translate(16.1604061126709px, 96.84673690795898px) scale(1, 1) translate(-16.1604061126709px, -96.84673690795898px);transform: translate(16.1604061126709px, 96.84673690795898px) scale(1, 1) translate(-16.1604061126709px, -96.84673690795898px);}67.78%{-webkit-transform: translate(16.1604061126709px, 96.84673690795898px) scale(1.1, 1.1) translate(-16.1604061126709px, -96.84673690795898px);transform: translate(16.1604061126709px, 96.84673690795898px) scale(1.1, 1.1) translate(-16.1604061126709px, -96.84673690795898px);}68.61%{-webkit-transform: translate(16.1604061126709px, 96.84673690795898px) scale(1, 1) translate(-16.1604061126709px, -96.84673690795898px);transform: translate(16.1604061126709px, 96.84673690795898px) scale(1, 1) translate(-16.1604061126709px, -96.84673690795898px);}0%{-webkit-transform: translate(16.1604061126709px, 96.84673690795898px) scale(1, 1) translate(-16.1604061126709px, -96.84673690795898px);transform: translate(16.1604061126709px, 96.84673690795898px) scale(1, 1) translate(-16.1604061126709px, -96.84673690795898px);}100%{-webkit-transform: translate(16.1604061126709px, 96.84673690795898px) scale(1, 1) translate(-16.1604061126709px, -96.84673690795898px);transform: translate(16.1604061126709px, 96.84673690795898px) scale(1, 1) translate(-16.1604061126709px, -96.84673690795898px);}}@keyframes kf_el_NoNjPExqJH_an_7l-_-vyX3{66.94%{-webkit-transform: translate(16.1604061126709px, 96.84673690795898px) scale(1, 1) translate(-16.1604061126709px, -96.84673690795898px);transform: translate(16.1604061126709px, 96.84673690795898px) scale(1, 1) translate(-16.1604061126709px, -96.84673690795898px);}67.78%{-webkit-transform: translate(16.1604061126709px, 96.84673690795898px) scale(1.1, 1.1) translate(-16.1604061126709px, -96.84673690795898px);transform: translate(16.1604061126709px, 96.84673690795898px) scale(1.1, 1.1) translate(-16.1604061126709px, -96.84673690795898px);}68.61%{-webkit-transform: translate(16.1604061126709px, 96.84673690795898px) scale(1, 1) translate(-16.1604061126709px, -96.84673690795898px);transform: translate(16.1604061126709px, 96.84673690795898px) scale(1, 1) translate(-16.1604061126709px, -96.84673690795898px);}0%{-webkit-transform: translate(16.1604061126709px, 96.84673690795898px) scale(1, 1) translate(-16.1604061126709px, -96.84673690795898px);transform: translate(16.1604061126709px, 96.84673690795898px) scale(1, 1) translate(-16.1604061126709px, -96.84673690795898px);}100%{-webkit-transform: translate(16.1604061126709px, 96.84673690795898px) scale(1, 1) translate(-16.1604061126709px, -96.84673690795898px);transform: translate(16.1604061126709px, 96.84673690795898px) scale(1, 1) translate(-16.1604061126709px, -96.84673690795898px);}}@-webkit-keyframes kf_el_us0y6pabKf_an_UFuvkvZM4{0%{-webkit-transform: translate(386.3000183105469px, 96.1002592841105px) rotate(0deg) translate(-386.3000183105469px, -96.1002592841105px);transform: translate(386.3000183105469px, 96.1002592841105px) rotate(0deg) translate(-386.3000183105469px, -96.1002592841105px);}100%{-webkit-transform: translate(386.3000183105469px, 96.1002592841105px) rotate(360deg) translate(-386.3000183105469px, -96.1002592841105px);transform: translate(386.3000183105469px, 96.1002592841105px) rotate(360deg) translate(-386.3000183105469px, -96.1002592841105px);}}@keyframes kf_el_us0y6pabKf_an_UFuvkvZM4{0%{-webkit-transform: translate(386.3000183105469px, 96.1002592841105px) rotate(0deg) translate(-386.3000183105469px, -96.1002592841105px);transform: translate(386.3000183105469px, 96.1002592841105px) rotate(0deg) translate(-386.3000183105469px, -96.1002592841105px);}100%{-webkit-transform: translate(386.3000183105469px, 96.1002592841105px) rotate(360deg) translate(-386.3000183105469px, -96.1002592841105px);transform: translate(386.3000183105469px, 96.1002592841105px) rotate(360deg) translate(-386.3000183105469px, -96.1002592841105px);}}#el_Oms3ffJhB *{-webkit-animation-duration: 12s;animation-duration: 12s;-webkit-animation-iteration-count: infinite;animation-iteration-count: infinite;-webkit-animation-timing-function: cubic-bezier(0, 0, 1, 1);animation-timing-function: cubic-bezier(0, 0, 1, 1);}#el_us0y6pabKf{fill: #51CE00;}#el_Hj34pdASwP{fill: #51CE00;}#el_r3yXyjeCrr{fill: #51CE00;}#el_crxTe4utgb{fill: #51CE00;}#el_DZG-Xy-h1D{fill: #51CE00;}#el_NoNjPExqJH{fill: #51CE00;}#el_NpMhutx-Ag{fill: #51CE00;}#el_oDIxXyqK33{fill: #51CE00;}#el_QnRuHGg38y{fill: #FFFFFF;}#el_Rzzmjrziqk{fill: #FFFFFF;}#el_zUjeUh_XRT{fill: #FFFFFF;}#el_FS1-RU59lT6{fill: #FFFFFF;}#el_Fj1RxWadMVH{fill: #FFFFFF;}#el_us0y6pabKf_an_UFuvkvZM4{-webkit-animation-fill-mode: backwards;animation-fill-mode: backwards;-webkit-transform: translate(386.3000183105469px, 96.1002592841105px) rotate(0deg) translate(-386.3000183105469px, -96.1002592841105px);transform: translate(386.3000183105469px, 96.1002592841105px) rotate(0deg) translate(-386.3000183105469px, -96.1002592841105px);-webkit-animation-name: kf_el_us0y6pabKf_an_UFuvkvZM4;animation-name: kf_el_us0y6pabKf_an_UFuvkvZM4;-webkit-animation-timing-function: cubic-bezier(0, 0, 1, 1);animation-timing-function: cubic-bezier(0, 0, 1, 1);}#el_NoNjPExqJH_an_HeDdZlV7J{-webkit-transform: translate(16.1604061126709px, 96.84673690795898px) rotate(0deg) translate(-16.1604061126709px, -96.84673690795898px);transform: translate(16.1604061126709px, 96.84673690795898px) rotate(0deg) translate(-16.1604061126709px, -96.84673690795898px);}#el_NoNjPExqJH_an_7l-_-vyX3{-webkit-animation-fill-mode: backwards;animation-fill-mode: backwards;-webkit-transform: translate(16.1604061126709px, 96.84673690795898px) scale(1, 1) translate(-16.1604061126709px, -96.84673690795898px);transform: translate(16.1604061126709px, 96.84673690795898px) scale(1, 1) translate(-16.1604061126709px, -96.84673690795898px);-webkit-animation-name: kf_el_NoNjPExqJH_an_7l-_-vyX3;animation-name: kf_el_NoNjPExqJH_an_7l-_-vyX3;-webkit-animation-timing-function: cubic-bezier(0, 0, 1, 1);animation-timing-function: cubic-bezier(0, 0, 1, 1);}#el_oDIxXyqK33_an_IKR2TyboZ{-webkit-animation-fill-mode: backwards;animation-fill-mode: backwards;-webkit-transform: translate(50.822622299194336px, 96.3052864074707px) scale(1, 1) translate(-50.822622299194336px, -96.3052864074707px);transform: translate(50.822622299194336px, 96.3052864074707px) scale(1, 1) translate(-50.822622299194336px, -96.3052864074707px);-webkit-animation-name: kf_el_oDIxXyqK33_an_IKR2TyboZ;animation-name: kf_el_oDIxXyqK33_an_IKR2TyboZ;-webkit-animation-timing-function: cubic-bezier(0, 0, 1, 1);animation-timing-function: cubic-bezier(0, 0, 1, 1);}#el_DZG-Xy-h1D_an_a3IYoQsrZ{-webkit-animation-fill-mode: backwards;animation-fill-mode: backwards;-webkit-transform: translate(86.19052124023438px, 96.19160461425781px) scale(1, 1) translate(-86.19052124023438px, -96.19160461425781px);transform: translate(86.19052124023438px, 96.19160461425781px) scale(1, 1) translate(-86.19052124023438px, -96.19160461425781px);-webkit-animation-name: kf_el_DZG-Xy-h1D_an_a3IYoQsrZ;animation-name: kf_el_DZG-Xy-h1D_an_a3IYoQsrZ;-webkit-animation-timing-function: cubic-bezier(0, 0, 1, 1);animation-timing-function: cubic-bezier(0, 0, 1, 1);}#el_NpMhutx-Ag_an_CqvhtNWkk{-webkit-transform: translate(122.31145858764648px, 96.35476684570312px) scale(1, 1) translate(-122.31145858764648px, -96.35476684570312px);transform: translate(122.31145858764648px, 96.35476684570312px) scale(1, 1) translate(-122.31145858764648px, -96.35476684570312px);-webkit-animation-fill-mode: backwards;animation-fill-mode: backwards;-webkit-animation-name: kf_el_NpMhutx-Ag_an_CqvhtNWkk;animation-name: kf_el_NpMhutx-Ag_an_CqvhtNWkk;-webkit-animation-timing-function: cubic-bezier(0, 0, 1, 1);animation-timing-function: cubic-bezier(0, 0, 1, 1);}#el_crxTe4utgb_an_tBmStF_Vt{-webkit-animation-fill-mode: backwards;animation-fill-mode: backwards;-webkit-transform: translate(178.1552505493164px, 96.91360473632812px) scale(1, 1) translate(-178.1552505493164px, -96.91360473632812px);transform: translate(178.1552505493164px, 96.91360473632812px) scale(1, 1) translate(-178.1552505493164px, -96.91360473632812px);-webkit-animation-name: kf_el_crxTe4utgb_an_tBmStF_Vt;animation-name: kf_el_crxTe4utgb_an_tBmStF_Vt;-webkit-animation-timing-function: cubic-bezier(0, 0, 1, 1);animation-timing-function: cubic-bezier(0, 0, 1, 1);}#el_Hj34pdASwP_an_DfBILw7iH{-webkit-animation-fill-mode: backwards;animation-fill-mode: backwards;-webkit-transform: translate(219.54998016357422px, 96.49905395507812px) scale(1, 1) translate(-219.54998016357422px, -96.49905395507812px);transform: translate(219.54998016357422px, 96.49905395507812px) scale(1, 1) translate(-219.54998016357422px, -96.49905395507812px);-webkit-animation-name: kf_el_Hj34pdASwP_an_DfBILw7iH;animation-name: kf_el_Hj34pdASwP_an_DfBILw7iH;-webkit-animation-timing-function: cubic-bezier(0, 0, 1, 1);animation-timing-function: cubic-bezier(0, 0, 1, 1);}#el_r3yXyjeCrr_an_7OiDFnjjE{-webkit-animation-fill-mode: backwards;animation-fill-mode: backwards;-webkit-transform: translate(259.2023468017578px, 96.81402206420898px) scale(1, 1) translate(-259.2023468017578px, -96.81402206420898px);transform: translate(259.2023468017578px, 96.81402206420898px) scale(1, 1) translate(-259.2023468017578px, -96.81402206420898px);-webkit-animation-name: kf_el_r3yXyjeCrr_an_7OiDFnjjE;animation-name: kf_el_r3yXyjeCrr_an_7OiDFnjjE;-webkit-animation-timing-function: cubic-bezier(0, 0, 1, 1);animation-timing-function: cubic-bezier(0, 0, 1, 1);}#el_tFxgHchA-p_an_VRQrD7QnV{-webkit-animation-fill-mode: backwards;animation-fill-mode: backwards;-webkit-transform: translate(320.1000061035156px, 76.69999694824219px) scale(1, 1) translate(-320.1000061035156px, -76.69999694824219px);transform: translate(320.1000061035156px, 76.69999694824219px) scale(1, 1) translate(-320.1000061035156px, -76.69999694824219px);-webkit-animation-name: kf_el_tFxgHchA-p_an_VRQrD7QnV;animation-name: kf_el_tFxgHchA-p_an_VRQrD7QnV;-webkit-animation-timing-function: cubic-bezier(0, 0, 1, 1);animation-timing-function: cubic-bezier(0, 0, 1, 1);}</style>

<g id="el_E4IjG6tBBE">
	<g id="el_O4Mzl86TkN">
		<g id="el_us0y6pabKf_an_UFuvkvZM4" data-animator-group="true" data-animator-type="1"><path d="M386.6,0c-53.2-0.1-96.4,42.9-96.4,96c-0.1,52.9,42.8,96.1,95.5,96.2c53.3,0.2,96.6-42.7,96.7-95.6&#10;&#9;&#9;&#9;C482.5,43.3,439.6,0.1,386.6,0z M297,83.6c1.4-7.8,3.2-15.6,6.6-22.8c1-2.2,2.7-3.6,5.3-2.7c2.9,1.1,3.5,3.4,2.4,6&#10;&#9;&#9;&#9;c-2.9,6.7-4.6,13.8-5.9,21c-0.5,2.8-2,4.7-4.9,4.1C297.7,88.7,296.6,86.4,297,83.6z M310,136c-2.4,1-4.3,0-5.5-2.3&#10;&#9;&#9;&#9;c-3.7-7.4-5.8-15.2-7.3-23.7c0-2,0.7-4,3.3-4.6c2.6-0.6,4.5,0.7,5,3.2c1.5,7.6,3.6,15,6.8,22C313.4,133,312.4,135,310,136z&#10;&#9;&#9;&#9; M317.9,37.9c5-6,10.7-11.1,17.2-15.3c3.6-2.3,7.2-0.7,7.2,3c0,2-1.4,3.1-2.8,4.2c-5.6,4-10.7,8.5-15.2,13.7&#10;&#9;&#9;&#9;c-2,2.3-4.4,3.2-6.8,0.9C315.2,42.2,316.1,39.9,317.9,37.9z M343.3,170.4c-1.9,2.9-4.5,1.9-6.9,0.3c-6.3-4.2-11.9-9-17-14.6&#10;&#9;&#9;&#9;c-1.4-1.6-2.1-3.4-1.3-5.5c0.7-1.6,2-2.2,2.8-2.4c2.6-0.1,3.6,1.1,4.7,2.2c4.7,5,9.9,9.4,15.6,13.2&#10;&#9;&#9;&#9;C343.7,165.4,345.2,167.6,343.3,170.4z M355.8,15.6c-0.5-2.3,0.9-4,2.9-4.6c8-2.7,16.3-4,24.7-4.2c2.6-0.1,4.2,1.4,4.3,4&#10;&#9;&#9;&#9;c0.1,2.4-1.2,3.8-3.4,4.1c-7.9,0.8-15.8,1.6-22.7,3.9C358.2,19.1,356.4,18.1,355.8,15.6z M387.3,185.5c-1.3,0-2.7,0-5.6,0&#10;&#9;&#9;&#9;c-5.3-0.1-12-1.4-18.7-3c-3-0.7-5.8-2.1-4.6-5.9c1-3.2,3.6-3.2,6.5-2.4c7.3,1.9,14.8,2.8,22.4,2.9c3,0,7-0.9,7.2,3.7&#10;&#9;&#9;&#9;C394.6,185.7,390.7,185.5,387.3,185.5z M403.9,12.2c0.7-2.1,2.5-3.2,4.7-2.7c8.4,2.1,16.4,5.3,23.6,10.1c1.1,0.7,1.9,1.9,1.8,3.6&#10;&#9;&#9;&#9;c-0.7,3.4-3.3,4.8-6.3,3.2c-6.9-3.6-14-6.6-21.3-8.9C403.9,16.7,403.1,14.7,403.9,12.2z M438.4,168.5c-7,5.6-14.9,9.2-22.6,12&#10;&#9;&#9;&#9;c-2.9,0.1-4.7-0.4-5.4-2.8c-0.6-2.2,0.2-4.2,2.3-5c7.4-2.9,14.4-6.6,21.1-10.9c1.8-1.1,4-0.7,5.3,1.3&#10;&#9;&#9;&#9;C440.2,165,440.2,167,438.4,168.5z M445.8,35.3c1.1-1.1,2.6-1.5,4.3-1c3.7,1.3,16.6,19.7,16.4,23.6c0,1.8-0.8,3-2.4,3.6&#10;&#9;&#9;&#9;c-2.1,0.8-4.1,0.3-5.2-1.7c-3.8-6.8-8.1-13.2-13.3-19.1C444.2,39.2,444.2,36.9,445.8,35.3z M455,152.4c-1.5,1.4-3.4,0.7-4.8-0.7&#10;&#9;&#9;&#9;c-1.7-1.6-1.7-3.6-0.4-5.4c4.6-6.2,8.5-12.8,11.6-20c0.8-1.9,2.8-2.8,5-2.2c2,0.6,2.7,2.1,2.8,4.9&#10;&#9;&#9;&#9;C466.1,137.2,462,145.7,455,152.4z M475.3,105c-0.4,2.4-1.9,4.1-4.6,3.7c-2.7-0.3-4.1-2.3-3.7-4.7c1.1-7.6-0.1-15.1-0.8-22.6&#10;&#9;&#9;&#9;c-0.2-2.6,1-4.5,3.5-4.8c2.5-0.3,4.3,1.3,4.6,3.8c0.8,5.1,1.9,10.1,1.6,15.3C475.7,98.8,475.7,101.9,475.3,105z" id="el_us0y6pabKf"/></g>
		<g id="el_Hj34pdASwP_an_DfBILw7iH" data-animator-group="true" data-animator-type="2"><path d="M239.2,96.8c0,5.5,0.1,11.1-0.1,16.6c-0.1,3.1-1.3,5.8-5,5.8c-3.6,0-4.9-2.6-5.1-5.8c-0.1-1.8-0.3-3.6,0-5.3&#10;&#9;&#9;&#9;c1.1-6.6-1.6-8.2-7.9-7.9c-10.9,0.6-10.9,0.1-11.2,11.2c-0.1,3.7-0.1,7.8-5.1,7.7c-4.9,0-5.1-4-5.1-7.7c0-10,0-20,0-30&#10;&#9;&#9;&#9;c0-3.8,0.5-7.7,5.3-7.6c4.7,0.1,5,4.2,4.9,7.9c0,1.6,0.2,3.1,0,4.7c-0.6,4.2,1.3,5.7,5.3,5.1c0.9-0.1,1.8,0,2.7,0&#10;&#9;&#9;&#9;c10.8,0,10.8,0,11.2-10.4c0.2-3.6,0.7-7.2,5-7.3c4.8-0.1,5.3,3.8,5.3,7.6C239.2,86.5,239.2,91.7,239.2,96.8z" id="el_Hj34pdASwP"/></g>
		<g id="el_r3yXyjeCrr_an_7OiDFnjjE" data-animator-group="true" data-animator-type="2"><path d="M246.4,96.5c0-5.1,0-10.2,0-15.3c0.1-4.2,2.1-6.7,6.5-6.6c4.4,0,8.9,0,13.3,0c2.9,0,5.6,0.7,5.6,4.2&#10;&#9;&#9;&#9;c0.1,3.9-2.8,4.6-5.9,4.6c-1.8,0-3.6,0.1-5.3,0c-3.3-0.3-4.1,1.3-4.1,4.4c0,3.1,0.9,4.3,4.2,4.3c3.8,0.1,10.1-2.1,10.2,4.1&#10;&#9;&#9;&#9;c0.1,6.8-6.5,4.3-10.4,4.5c-3.5,0.2-3.9,1.8-3.9,4.7c0,2.7,0.1,4.9,3.8,4.5c2.4-0.2,4.9-0.1,7.3,0.1c2.4,0.2,4.2,1.6,4.3,4.3&#10;&#9;&#9;&#9;c0.1,2.6-1.4,4.4-3.9,4.5c-5.5,0.2-11.1,0.4-16.7,0c-3.8-0.3-4.9-3.3-4.9-6.8C246.4,106.7,246.4,101.6,246.4,96.5z" id="el_r3yXyjeCrr"/></g>
		<g id="el_crxTe4utgb_an_tBmStF_Vt" data-animator-group="true" data-animator-type="2"><path d="M173.5,100.4c0-3.1-0.2-6.2,0-9.3c0.4-5,0-8.8-6.7-7.9c-2.6,0.3-4.8-1.4-4.7-4.4c0.1-2.6,2-4,4.4-4.1&#10;&#9;&#9;&#9;c7.8-0.1,15.5-0.1,23.3,0c2.5,0,4.2,1.4,4.4,4c0.2,3.1-1.8,4.8-4.5,4.5c-6.3-0.8-6.6,2.6-6.4,7.4c0.3,7.3,0.1,14.6,0.1,21.9&#10;&#9;&#9;&#9;c0,3.3-0.7,6.6-4.7,6.7c-4.5,0.1-5.2-3.2-5.2-6.9C173.5,108.3,173.5,104.3,173.5,100.4z" id="el_crxTe4utgb"/></g>
		<g id="el_PffA8I9_sw">
			<g id="el_DZG-Xy-h1D_an_a3IYoQsrZ" data-animator-group="true" data-animator-type="2"><path d="M92.8,77.5c-2.7-6.3-10.8-5.8-13.5,0.7c-4.6,11.2-8.5,22.8-12.6,34.3c-1.1,3.1,0,5.3,2.9,6.4&#10;&#9;&#9;&#9;&#9;c3,1.2,5.6-0.1,6.3-3.1c1-4.2,3.2-6.1,7.4-5.2c4.7,0.9,11.5-3.3,13.2,5.4c0.6,2.7,3,3.7,5.8,3.1c2.5-0.6,3.8-2.1,3.8-4.7&#10;&#9;&#9;&#9;&#9;c0-0.4,0-0.9-0.2-1.3C101.7,101.2,97.8,89.1,92.8,77.5z M83.6,92.4c0.7-2.1,1.5-4,2.8-7.4c1.9,6.1,3.4,11,5,15.9&#10;&#9;&#9;&#9;&#9;C80.5,102.3,80.5,102.3,83.6,92.4z" id="el_DZG-Xy-h1D"/></g>
			<g id="el_NoNjPExqJH_an_7l-_-vyX3" data-animator-group="true" data-animator-type="2"><path d="M19.1,74.7c-4.2-0.4-8.4-0.1-12.6-0.2C2,74.5,0,76.7,0,81.1c0,5.3,0,10.6,0,16c0,5.1,0,10.2,0,15.3&#10;&#9;&#9;&#9;&#9;c0,3.3,0.4,6.6,4.5,6.8c4.5,0.2,5.8-3.1,5.3-6.7c-1-7,1.7-8.9,8.5-8.5c8.1,0.4,13.6-5.6,14-13.8C32.7,81.9,27.3,75.4,19.1,74.7z&#10;&#9;&#9;&#9;&#9; M21.5,89.6c-0.2,4.3-3.6,5.2-7.5,5.5c-5.3,0.4-4-3.1-4.1-6c0-3-1-6.4,4.2-5.9C18.3,83.6,21.8,84.8,21.5,89.6z" id="el_NoNjPExqJH"/></g>
			<g id="el_NpMhutx-Ag_an_CqvhtNWkk" data-animator-group="true" data-animator-type="2"><path d="M137.8,75.1c-5.6-4.4-7.6,2-10,5.1c-5.9,7.7-5.8,7.8-11.3,0c-1.9-2.6-3.1-6.1-7.1-6.5&#10;&#9;&#9;&#9;&#9;c-1.9,0.2-3.4,1.1-4.3,2.7c-1.3,2.5-0.3,4.8,1.3,6.7c6.5,8.2,12.9,16.3,10.7,28c-0.7,3.6-0.1,7.8,4.8,8c5.5,0.2,5.7-4.4,5.2-8.1&#10;&#9;&#9;&#9;&#9;c-1.3-9.8,2-17.6,8.5-24.7C138.2,83.3,143,79.2,137.8,75.1z" id="el_NpMhutx-Ag"/></g>
			<g id="el_oDIxXyqK33_an_IKR2TyboZ" data-animator-group="true" data-animator-type="2"><path d="M58.5,109.7c-3.2-0.4-7.7,1.6-9.4-1.1c-1.6-2.6-0.6-6.8-0.8-10.3c-0.1-1.8,0-3.5,0-5.3c0-4,0-8,0-12&#10;&#9;&#9;&#9;&#9;c0-3.6-0.7-7.1-5-7.2c-4.3,0-5.2,3.4-5.2,7c0,6.7,0,13.3,0,20c-0.2,19.8-1.1,17.9,18.6,18c0.4,0,0.9,0,1.3,0c3,0,5.4-1,5.6-4.3&#10;&#9;&#9;&#9;&#9;C63.8,111,61.5,110,58.5,109.7z" id="el_oDIxXyqK33"/></g>
		</g>
	</g>
	<g id="el_tFxgHchA-p_an_VRQrD7QnV" data-animator-group="true" data-animator-type="2"><g id="el_tFxgHchA-p">
		<path d="M324.4,111.4l-2.4,2.2l-1.9-2.2l1.1-12.4l1.7-1.6l2.5,2.7L324.4,111.4z M325.9,93.1l-2.9,2.7l-1.5-1.6&#10;&#9;&#9;&#9;l1.1-12.4l2.3-2.2l1.9,2.2L325.9,93.1z M338.4,116.4l2.3-2.1l-1.9-2.2H325l-2.3,2.2l1.9,2.1H338.4z M346,76.8l-4.5,4.3h-13.8&#10;&#9;&#9;&#9;l-1.9-2.2l2.3-2.1H346z M342.8,96.6l-2.4,2.1h-4.8l-1.9-2.1l2.3-2.1h4.8L342.8,96.6z M343.8,111.4l-2.3,2.2l-1.9-2.2l1-11.3&#10;&#9;&#9;&#9;l2.9-2.7l1.4,1.6L343.8,111.4z" id="el_QnRuHGg38y"/>
		<path d="M357.2,114.3l-2.3,2.1l-1.9-2.1l1.3-14.3l2.9-2.7l1.5,1.6L357.2,114.3z M359,94.2l-1.7,1.6l-2.5-2.7l1.3-14.3&#10;&#9;&#9;&#9;l2.3-2.1l2,2.1L359,94.2z" id="el_Rzzmjrziqk"/>
		<path d="M371.1,112.1l-4.6,4.3L368,99l1.7-1.6l2.4,2.7L371.1,112.1z M372.7,93.1l-2.9,2.7l-1.5-1.6l1.5-16.7l3.8,4.2&#10;&#9;&#9;&#9;L372.7,93.1z M387.6,94.5l2,2.1l-2.4,2.1h-14.8l-1.8-2.1l2.3-2.1L387.6,94.5z M390.6,78.9l-2.3,2.2h-13.8l-3.9-4.3h18L390.6,78.9z&#10;&#9;&#9;&#9; M392.1,94.2l-1.7,1.6l-2.5-2.7l1-11.3l2.3-2.2l1.9,2.2L392.1,94.2z" id="el_zUjeUh_XRT"/>
		<path d="M402.6,100l-1,12.1l-4.6,4.3l1.5-17.4l1.7-1.6L402.6,100z M398.9,94.2l1.5-17.4l3.9,4.2l-1.1,12.1l-2.9,2.7&#10;&#9;&#9;&#9;L398.9,94.2z M418.2,94.5l2,2.1l-2.4,2.1H403l-1.8-2.1l2.3-2.1H418.2z M422.2,99l-1.5,17.4l-3.8-4.3l1-12.1l2.9-2.7L422.2,99z&#10;&#9;&#9;&#9; M418.6,93.1l1.1-12.1l4.5-4.2l-1.5,17.4l-1.6,1.6L418.6,93.1z" id="el_FS1-RU59lT6"/>
		<path d="M431,76.7l3.9,4.3l-1.1,12.1l-2.9,2.7l-1.5-1.6L431,76.7z M446.3,116.4l2.3-2.1l-1.9-2.2h-13.8l-2.3,2.2&#10;&#9;&#9;&#9;l1.9,2.1H446.3z M433.9,94.5l-2.3,2.1l1.9,2.1h14.8l2.4-2.1l-2-2.1H433.9z M452.8,99l-1.4-1.6l-2.9,2.7l-1,11.3l1.9,2.2l2.3-2.2&#10;&#9;&#9;&#9;L452.8,99z M454.7,76.8l-4.5,4.2l-1.1,12.1l2.5,2.7l1.7-1.6L454.7,76.8z" id="el_Fj1RxWadMVH"/>
	</g></g>
</g>
</svg>